{"asset":{"version":"2.0","generator":"THREE.GLTFExporter"},"scenes":[{"name":"default","nodes":[0]}],"scene":0,"nodes":[{"name":"grass5","extras":{"data":{"name":"grass5","points":[{"name":"Origin","pos":{"x":0,"y":0,"z":0}}],"billboard":{"enabled":false,"y":false},"directional":{"enabled":false,"mode":"cameraAngle","angles":[{"suffix":"_S","angle":0,"enabled":true,"min":-22.5,"max":22.5},{"suffix":"_SW","angle":45,"enabled":true,"min":22.5,"max":67.5},{"suffix":"_W","angle":90,"enabled":true,"min":67.5,"max":112.5},{"suffix":"_NW","angle":135,"enabled":true,"min":112.5,"max":157.5},{"suffix":"_N","angle":180,"enabled":true,"min":157.5,"max":202.5},{"suffix":"_NE","angle":225,"enabled":true,"min":202.5,"max":247.5},{"suffix":"_E","angle":270,"enabled":true,"min":247.5,"max":292.5},{"suffix":"_SE","angle":315,"enabled":true,"min":292.5,"max":337.5}]},"custom":[],"instances":[{"name":"grass5","uuid":"D747EB9D-4D3B-4B23-9C66-8253F3CDE639","parent":null,"pos":{"x":2.25,"y":0,"z":1.25},"rot":{"x":0,"y":0,"z":0,"order":"XYZ"},"sca":{"x":1,"y":1,"z":1},"custom":[]}]}},"mesh":0}],"bufferViews":[{"buffer":0,"byteOffset":0,"byteLength":288,"target":34962,"byteStride":12},{"buffer":0,"byteOffset":288,"byteLength":288,"target":34962,"byteStride":12},{"buffer":0,"byteOffset":576,"byteLength":192,"target":34962,"byteStride":8},{"buffer":0,"byteOffset":768,"byteLength":48,"target":34963}],"buffers":[{"byteLength":816,"uri":"data:application/octet-stream;base64,"}],"accessors":[{"bufferView":0,"componentType":5126,"count":24,"max":[0.25,0.125,0.24985000491142273],"min":[-0.25,0,-0.2500999867916107],"type":"VEC3"},{"bufferView":1,"componentType":5126,"count":24,"max":[0.4472135901451111,1,0.4472493827342987],"min":[-0.4472135901451111,0.8944092988967896,-0.4472493827342987],"type":"VEC3"},{"bufferView":2,"componentType":5126,"count":24,"max":[0.203125,0.109375],"min":[0.1875,0.09375],"type":"VEC2"},{"bufferView":3,"componentType":5123,"count":24,"max":[23],"min":[0],"type":"SCALAR"}],"materials":[{"pbrMetallicRoughness":{"metallicFactor":0,"roughnessFactor":0.9,"baseColorTexture":{"index":0}},"alphaMode":"MASK","alphaCutoff":0.01,"name":"dualgridterrain_0","extensions":{"KHR_materials_unlit":{}}}],"textures":[{"sampler":0,"source":0,"name":"dualgridterrain_0"}],"samplers":[{"magFilter":9728,"minFilter":9728,"wrapS":33071,"wrapT":33071}],"images":[{"mimeType":"image/png","uri":"dualgridterrain_0.png"}],"meshes":[{"primitives":[{"mode":4,"attributes":{"POSITION":0,"NORMAL":1,"TEXCOORD_0":2},"indices":3,"material":0}]}],"extensionsUsed":["KHR_materials_unlit"]}