{"asset":{"version":"2.0","generator":"THREE.GLTFExporter"},"scenes":[{"name":"default","nodes":[0]}],"scene":0,"nodes":[{"name":"tiledirt5","extras":{"data":{"name":"tiledirt5","points":[{"name":"Origin","pos":{"x":0,"y":0,"z":0}}],"billboard":{"enabled":false,"y":false},"directional":{"enabled":false,"mode":"cameraAngle","angles":[]},"custom":[],"instances":[{"name":"tiledirt5","uuid":"74489554-702B-4D9E-9453-ABCA713298B3","parent":null,"pos":{"x":29.5,"y":0,"z":4.25},"rot":{"x":0,"y":0,"z":0,"order":"XYZ"},"sca":{"x":1,"y":1,"z":1},"custom":[]}]}},"mesh":0}],"bufferViews":[{"buffer":0,"byteOffset":0,"byteLength":648,"target":34962,"byteStride":12},{"buffer":0,"byteOffset":648,"byteLength":648,"target":34962,"byteStride":12},{"buffer":0,"byteOffset":1296,"byteLength":432,"target":34962,"byteStride":8},{"buffer":0,"byteOffset":1728,"byteLength":108,"target":34963}],"buffers":[{"byteLength":1836,"uri":"data:application/octet-stream;base64,"}],"accessors":[{"bufferView":0,"componentType":5126,"count":54,"max":[0.5,-0.125,0.4997001588344574],"min":[-0.5,-0.25,-0.5003000497817993],"type":"VEC3"},{"bufferView":1,"componentType":5126,"count":54,"max":[0.7071067690849304,1,0.7071378231048584],"min":[-0.7071067690849304,0.7070756554603577,-0.7071378827095032],"type":"VEC3"},{"bufferView":2,"componentType":5126,"count":54,"max":[0.59375,0.109375],"min":[0.578125,0.09375],"type":"VEC2"},{"bufferView":3,"componentType":5123,"count":54,"max":[53],"min":[0],"type":"SCALAR"}],"materials":[{"pbrMetallicRoughness":{"metallicFactor":0,"roughnessFactor":0.9,"baseColorTexture":{"index":0}},"alphaMode":"MASK","alphaCutoff":0.01,"name":"dualgridterrain_0","extensions":{"KHR_materials_unlit":{}}}],"textures":[{"sampler":0,"source":0,"name":"dualgridterrain_0"}],"samplers":[{"magFilter":9728,"minFilter":9728,"wrapS":33071,"wrapT":33071}],"images":[{"mimeType":"image/png","uri":"dualgridterrain_0.png"}],"meshes":[{"primitives":[{"mode":4,"attributes":{"POSITION":0,"NORMAL":1,"TEXCOORD_0":2},"indices":3,"material":0}]}],"extensionsUsed":["KHR_materials_unlit"]}