{"asset":{"version":"2.0","generator":"THREE.GLTFExporter"},"scenes":[{"name":"default","nodes":[0]}],"scene":0,"nodes":[{"name":"tilegrass10b","extras":{"data":{"name":"tilegrass10b","points":[{"name":"Origin","pos":{"x":0,"y":0,"z":0}}],"billboard":{"enabled":false,"y":false},"directional":{"enabled":false,"mode":"cameraAngle","angles":[]},"custom":[],"instances":[{"name":"tilegrass10b","uuid":"681B1E8C-992A-45E7-A350-CA8941D9D9BC","parent":null,"pos":{"x":22.5,"y":0,"z":2.25},"rot":{"x":0,"y":0,"z":0,"order":"XYZ"},"sca":{"x":1,"y":1,"z":1},"custom":[]}]}},"mesh":0}],"bufferViews":[{"buffer":0,"byteOffset":0,"byteLength":648,"target":34962,"byteStride":12},{"buffer":0,"byteOffset":648,"byteLength":648,"target":34962,"byteStride":12},{"buffer":0,"byteOffset":1296,"byteLength":432,"target":34962,"byteStride":8},{"buffer":0,"byteOffset":1728,"byteLength":108,"target":34963}],"buffers":[{"byteLength":1836,"uri":"data:application/octet-stream;base64,"}],"accessors":[{"bufferView":0,"componentType":5126,"count":54,"max":[0.5,0.125,0.49969998002052307],"min":[-0.5,0,-0.5002000331878662],"type":"VEC3"},{"bufferView":1,"componentType":5126,"count":54,"max":[0.7071067690849304,1,0.707142174243927],"min":[-0.7071067690849304,0.7070713639259338,-0.7071421146392822],"type":"VEC3"},{"bufferView":2,"componentType":5126,"count":54,"max":[0.484375,0.078125],"min":[0.46875,0.0625],"type":"VEC2"},{"bufferView":3,"componentType":5123,"count":54,"max":[53],"min":[0],"type":"SCALAR"}],"materials":[{"pbrMetallicRoughness":{"metallicFactor":0,"roughnessFactor":0.9,"baseColorTexture":{"index":0}},"alphaMode":"MASK","alphaCutoff":0.01,"name":"dualgridterrain_0","extensions":{"KHR_materials_unlit":{}}}],"textures":[{"sampler":0,"source":0,"name":"dualgridterrain_0"}],"samplers":[{"magFilter":9728,"minFilter":9728,"wrapS":33071,"wrapT":33071}],"images":[{"mimeType":"image/png","uri":"dualgridterrain_0.png"}],"meshes":[{"primitives":[{"mode":4,"attributes":{"POSITION":0,"NORMAL":1,"TEXCOORD_0":2},"indices":3,"material":0}]}],"extensionsUsed":["KHR_materials_unlit"]}