{"asset":{"version":"2.0","generator":"THREE.GLTFExporter"},"scenes":[{"name":"default","nodes":[0]}],"scene":0,"nodes":[{"name":"dng_ceiling_15","extras":{"data":{"name":"dng_ceiling_15","points":[{"name":"Origin","pos":{"x":0,"y":0,"z":0}}],"billboard":{"enabled":false,"y":false},"directional":{"enabled":false,"mode":"cameraAngle","angles":[]},"custom":[],"instances":[{"name":"dng_ceiling_15","uuid":"D41394F5-61C1-4A42-AF10-BBCE5EEC9245","parent":null,"pos":{"x":35.375,"y":1,"z":-0.375},"rot":{"x":0,"y":0,"z":0,"order":"XYZ"},"sca":{"x":1,"y":1,"z":1},"custom":[]}]}},"mesh":0}],"bufferViews":[{"buffer":0,"byteOffset":0,"byteLength":4896,"target":34962,"byteStride":12},{"buffer":0,"byteOffset":4896,"byteLength":4896,"target":34962,"byteStride":12},{"buffer":0,"byteOffset":9792,"byteLength":3264,"target":34962,"byteStride":8},{"buffer":0,"byteOffset":13056,"byteLength":816,"target":34963}],"buffers":[{"byteLength":13872,"uri":"data:application/octet-stream;base64,"}],"accessors":[{"bufferView":0,"componentType":5126,"count":408,"max":[0.625,1,0.625],"min":[-0.625,0,-0.625],"type":"VEC3"},{"bufferView":1,"componentType":5126,"count":408,"max":[1,0.7071067690849304,1],"min":[-1,-0.7071067690849304,-1],"type":"VEC3"},{"bufferView":2,"componentType":5126,"count":408,"max":[0.578125,0.09375],"min":[0.5625,0.078125],"type":"VEC2"},{"bufferView":3,"componentType":5123,"count":408,"max":[407],"min":[0],"type":"SCALAR"}],"materials":[{"pbrMetallicRoughness":{"metallicFactor":0,"roughnessFactor":0.9,"baseColorTexture":{"index":0}},"alphaMode":"MASK","alphaCutoff":0.01,"name":"tiletogridterrain_0","extensions":{"KHR_materials_unlit":{}}}],"textures":[{"sampler":0,"source":0,"name":"tiletogridterrain_0"}],"samplers":[{"magFilter":9728,"minFilter":9728,"wrapS":33071,"wrapT":33071}],"images":[{"mimeType":"image/png","uri":"tiletogridterrain_0.png"}],"meshes":[{"primitives":[{"mode":4,"attributes":{"POSITION":0,"NORMAL":1,"TEXCOORD_0":2},"indices":3,"material":0}]}],"extensionsUsed":["KHR_materials_unlit"]}