{"asset":{"version":"2.0","generator":"THREE.GLTFExporter"},"scenes":[{"name":"default","nodes":[0]}],"scene":0,"nodes":[{"name":"dng_doorway","extras":{"data":{"name":"dng_doorway","points":[{"name":"Origin","pos":{"x":0,"y":0,"z":0}}],"billboard":{"enabled":false,"y":false},"directional":{"enabled":false,"mode":"cameraAngle","angles":[]},"custom":[],"instances":[{"name":"dng_doorway","uuid":"F3F6244D-D263-4765-9043-0992D0DFBE3F","parent":null,"pos":{"x":40.5,"y":0,"z":0.5},"rot":{"x":0,"y":0,"z":0,"order":"XYZ"},"sca":{"x":1,"y":1,"z":1},"custom":[]}]}},"mesh":0}],"bufferViews":[{"buffer":0,"byteOffset":0,"byteLength":12024,"target":34962,"byteStride":12},{"buffer":0,"byteOffset":12024,"byteLength":12024,"target":34962,"byteStride":12},{"buffer":0,"byteOffset":24048,"byteLength":8016,"target":34962,"byteStride":8},{"buffer":0,"byteOffset":32064,"byteLength":2004,"target":34963}],"buffers":[{"byteLength":34068,"uri":"data:application/octet-stream;base64,"}],"accessors":[{"bufferView":0,"componentType":5126,"count":1002,"max":[1.625,2,0.625],"min":[-1.625,0,-0.625],"type":"VEC3"},{"bufferView":1,"componentType":5126,"count":1002,"max":[1,0.7071067690849304,1],"min":[-1,-1,-1],"type":"VEC3"},{"bufferView":2,"componentType":5126,"count":1002,"max":[0.625,0.390625],"min":[0.5,0.015625],"type":"VEC2"},{"bufferView":3,"componentType":5123,"count":1002,"max":[1001],"min":[0],"type":"SCALAR"}],"materials":[{"pbrMetallicRoughness":{"metallicFactor":0,"roughnessFactor":0.9,"baseColorTexture":{"index":0}},"alphaMode":"MASK","alphaCutoff":0.01,"name":"tiletogridterrain_0","extensions":{"KHR_materials_unlit":{}}}],"textures":[{"sampler":0,"source":0,"name":"tiletogridterrain_0"}],"samplers":[{"magFilter":9728,"minFilter":9728,"wrapS":33071,"wrapT":33071}],"images":[{"mimeType":"image/png","uri":"tiletogridterrain_0.png"}],"meshes":[{"primitives":[{"mode":4,"attributes":{"POSITION":0,"NORMAL":1,"TEXCOORD_0":2},"indices":3,"material":0}]}],"extensionsUsed":["KHR_materials_unlit"]}