{"asset":{"version":"2.0","generator":"THREE.GLTFExporter"},"scenes":[{"name":"default","nodes":[0]}],"scene":0,"nodes":[{"name":"dng_pit_15","extras":{"data":{"name":"dng_pit_15","points":[{"name":"Origin","pos":{"x":0,"y":0,"z":0}}],"billboard":{"enabled":false,"y":false},"directional":{"enabled":false,"mode":"cameraAngle","angles":[]},"custom":[],"instances":[{"name":"dng_pit_15","uuid":"59B2FC57-1070-459E-9853-20C469B40118","parent":null,"pos":{"x":30.875,"y":0,"z":4.625},"rot":{"x":0,"y":0,"z":0,"order":"XYZ"},"sca":{"x":1,"y":1,"z":1},"custom":[]}]}},"mesh":0}],"bufferViews":[{"buffer":0,"byteOffset":0,"byteLength":1512,"target":34962,"byteStride":12},{"buffer":0,"byteOffset":1512,"byteLength":1512,"target":34962,"byteStride":12},{"buffer":0,"byteOffset":3024,"byteLength":1008,"target":34962,"byteStride":8},{"buffer":0,"byteOffset":4032,"byteLength":252,"target":34963}],"buffers":[{"byteLength":4284,"uri":"data:application/octet-stream;base64,"}],"accessors":[{"bufferView":0,"componentType":5126,"count":126,"max":[0.625,0,0.5],"min":[-0.5,-3,-0.625],"type":"VEC3"},{"bufferView":1,"componentType":5126,"count":126,"max":[1,1,1],"min":[-1,0,-1],"type":"VEC3"},{"bufferView":2,"componentType":5126,"count":126,"max":[0.375,0.359375],"min":[0.359375,0.3125],"type":"VEC2"},{"bufferView":3,"componentType":5123,"count":126,"max":[125],"min":[0],"type":"SCALAR"}],"materials":[{"pbrMetallicRoughness":{"metallicFactor":0,"roughnessFactor":0.9,"baseColorTexture":{"index":0}},"alphaMode":"MASK","alphaCutoff":0.01,"name":"tiletogridterrain_0","extensions":{"KHR_materials_unlit":{}}}],"textures":[{"sampler":0,"source":0,"name":"tiletogridterrain_0"}],"samplers":[{"magFilter":9728,"minFilter":9728,"wrapS":33071,"wrapT":33071}],"images":[{"mimeType":"image/png","uri":"tiletogridterrain_0.png"}],"meshes":[{"primitives":[{"mode":4,"attributes":{"POSITION":0,"NORMAL":1,"TEXCOORD_0":2},"indices":3,"material":0}]}],"extensionsUsed":["KHR_materials_unlit"]}