{"asset":{"version":"2.0","generator":"THREE.GLTFExporter"},"scenes":[{"name":"default","nodes":[0]}],"scene":0,"nodes":[{"name":"dng_ceiling_09","extras":{"data":{"name":"dng_ceiling_09","points":[{"name":"Origin","pos":{"x":0,"y":0,"z":0}}],"billboard":{"enabled":false,"y":false},"directional":{"enabled":false,"mode":"cameraAngle","angles":[]},"custom":[],"instances":[{"name":"dng_ceiling_09","uuid":"3B0C35FF-D0CC-4376-AC1C-36CE709FFB94","parent":null,"pos":{"x":35.5,"y":1,"z":4.75},"rot":{"x":0,"y":0,"z":0,"order":"XYZ"},"sca":{"x":1,"y":1,"z":1},"custom":[]}]}},"mesh":0}],"bufferViews":[{"buffer":0,"byteOffset":0,"byteLength":2736,"target":34962,"byteStride":12},{"buffer":0,"byteOffset":2736,"byteLength":2736,"target":34962,"byteStride":12},{"buffer":0,"byteOffset":5472,"byteLength":1824,"target":34962,"byteStride":8},{"buffer":0,"byteOffset":7296,"byteLength":456,"target":34963}],"buffers":[{"byteLength":7752,"uri":"data:application/octet-stream;base64,"}],"accessors":[{"bufferView":0,"componentType":5126,"count":228,"max":[0.5,1,0.5000500082969666],"min":[-0.5000119805335999,0.375,-0.5],"type":"VEC3"},{"bufferView":1,"componentType":5126,"count":228,"max":[1,0.5773501992225647,0.7071067094802856],"min":[-0.7071067690849304,-1,-0.7070890665054321],"type":"VEC3"},{"bufferView":2,"componentType":5126,"count":228,"max":[0.5625,0.078125],"min":[0.546875,0.025390625],"type":"VEC2"},{"bufferView":3,"componentType":5123,"count":228,"max":[227],"min":[0],"type":"SCALAR"}],"materials":[{"pbrMetallicRoughness":{"metallicFactor":0,"roughnessFactor":0.9,"baseColorTexture":{"index":0}},"alphaMode":"MASK","alphaCutoff":0.01,"name":"tiletogridterrain_0","extensions":{"KHR_materials_unlit":{}}}],"textures":[{"sampler":0,"source":0,"name":"tiletogridterrain_0"}],"samplers":[{"magFilter":9728,"minFilter":9728,"wrapS":33071,"wrapT":33071}],"images":[{"mimeType":"image/png","uri":"tiletogridterrain_0.png"}],"meshes":[{"primitives":[{"mode":4,"attributes":{"POSITION":0,"NORMAL":1,"TEXCOORD_0":2},"indices":3,"material":0}]}],"extensionsUsed":["KHR_materials_unlit"]}