{"asset":{"version":"2.0","generator":"THREE.GLTFExporter"},"scenes":[{"name":"default","nodes":[0]}],"scene":0,"nodes":[{"name":"dng_ceiling_05","extras":{"data":{"name":"dng_ceiling_05","points":[{"name":"Origin","pos":{"x":0,"y":0,"z":0}}],"billboard":{"enabled":false,"y":false},"directional":{"enabled":false,"mode":"cameraAngle","angles":[]},"custom":[],"instances":[{"name":"dng_ceiling_05","uuid":"F390835F-27A7-48EE-9834-6534110F09BB","parent":null,"pos":{"x":37.5,"y":1,"z":2.5},"rot":{"x":0,"y":0,"z":0,"order":"XYZ"},"sca":{"x":1,"y":1,"z":1},"custom":[]}]}},"mesh":0}],"bufferViews":[{"buffer":0,"byteOffset":0,"byteLength":5688,"target":34962,"byteStride":12},{"buffer":0,"byteOffset":5688,"byteLength":5688,"target":34962,"byteStride":12},{"buffer":0,"byteOffset":11376,"byteLength":3792,"target":34962,"byteStride":8},{"buffer":0,"byteOffset":15168,"byteLength":948,"target":34963}],"buffers":[{"byteLength":16116,"uri":"data:application/octet-stream;base64,"}],"accessors":[{"bufferView":0,"componentType":5126,"count":474,"max":[0.625,1,0.5000376105308533],"min":[-0.4999876022338867,0,-0.5000123977661133],"type":"VEC3"},{"bufferView":1,"componentType":5126,"count":474,"max":[1,0.7071067690849304,0.7071067690849304],"min":[-1,-1,-0.7071067690849304],"type":"VEC3"},{"bufferView":2,"componentType":5126,"count":474,"max":[0.59375,0.078125],"min":[0.546875,0.015625],"type":"VEC2"},{"bufferView":3,"componentType":5123,"count":474,"max":[473],"min":[0],"type":"SCALAR"}],"materials":[{"pbrMetallicRoughness":{"metallicFactor":0,"roughnessFactor":0.9,"baseColorTexture":{"index":0}},"alphaMode":"MASK","alphaCutoff":0.01,"name":"tiletogridterrain_0","extensions":{"KHR_materials_unlit":{}}}],"textures":[{"sampler":0,"source":0,"name":"tiletogridterrain_0"}],"samplers":[{"magFilter":9728,"minFilter":9728,"wrapS":33071,"wrapT":33071}],"images":[{"mimeType":"image/png","uri":"tiletogridterrain_0.png"}],"meshes":[{"primitives":[{"mode":4,"attributes":{"POSITION":0,"NORMAL":1,"TEXCOORD_0":2},"indices":3,"material":0}]}],"extensionsUsed":["KHR_materials_unlit"]}