{"asset":{"version":"2.0","generator":"THREE.GLTFExporter"},"scenes":[{"name":"default","nodes":[0]}],"scene":0,"nodes":[{"name":"dng_ceiling_06","extras":{"data":{"name":"dng_ceiling_06","points":[{"name":"Origin","pos":{"x":0,"y":0,"z":0}}],"billboard":{"enabled":false,"y":false},"directional":{"enabled":false,"mode":"cameraAngle","angles":[]},"custom":[],"instances":[{"name":"dng_ceiling_06","uuid":"42835530-0127-4016-9A6C-19A7930E6B1C","parent":null,"pos":{"x":35.5,"y":1,"z":3.5},"rot":{"x":0,"y":0,"z":0,"order":"XYZ"},"sca":{"x":1,"y":1,"z":1},"custom":[]}]}},"mesh":0}],"bufferViews":[{"buffer":0,"byteOffset":0,"byteLength":6264,"target":34962,"byteStride":12},{"buffer":0,"byteOffset":6264,"byteLength":6264,"target":34962,"byteStride":12},{"buffer":0,"byteOffset":12528,"byteLength":4176,"target":34962,"byteStride":8},{"buffer":0,"byteOffset":16704,"byteLength":1044,"target":34963}],"buffers":[{"byteLength":17748,"uri":"data:application/octet-stream;base64,"}],"accessors":[{"bufferView":0,"componentType":5126,"count":522,"max":[0.5000123977661133,1,0.6249876022338867],"min":[-0.6249752044677734,0,-0.5000123977661133],"type":"VEC3"},{"bufferView":1,"componentType":5126,"count":522,"max":[1,0.7071067690849304,1],"min":[-1,-1,-1],"type":"VEC3"},{"bufferView":2,"componentType":5126,"count":522,"max":[0.609375,0.078125],"min":[0.546875,0.015625],"type":"VEC2"},{"bufferView":3,"componentType":5123,"count":522,"max":[521],"min":[0],"type":"SCALAR"}],"materials":[{"pbrMetallicRoughness":{"metallicFactor":0,"roughnessFactor":0.9,"baseColorTexture":{"index":0}},"alphaMode":"MASK","alphaCutoff":0.01,"name":"tiletogridterrain_0","extensions":{"KHR_materials_unlit":{}}}],"textures":[{"sampler":0,"source":0,"name":"tiletogridterrain_0"}],"samplers":[{"magFilter":9728,"minFilter":9728,"wrapS":33071,"wrapT":33071}],"images":[{"mimeType":"image/png","uri":"tiletogridterrain_0.png"}],"meshes":[{"primitives":[{"mode":4,"attributes":{"POSITION":0,"NORMAL":1,"TEXCOORD_0":2},"indices":3,"material":0}]}],"extensionsUsed":["KHR_materials_unlit"]}