{"asset":{"version":"2.0","generator":"THREE.GLTFExporter"},"scenes":[{"name":"default","nodes":[0]}],"scene":0,"nodes":[{"name":"fp_cliff_45","extras":{"data":{"name":"fp_cliff_45","points":[{"name":"Origin","pos":{"x":0,"y":0,"z":0}}],"billboard":{"enabled":false,"y":false},"directional":{"enabled":false,"mode":"cameraAngle","angles":[{"suffix":"_S","angle":0,"enabled":true,"min":-22.5,"max":22.5},{"suffix":"_SW","angle":45,"enabled":true,"min":22.5,"max":67.5},{"suffix":"_W","angle":90,"enabled":true,"min":67.5,"max":112.5},{"suffix":"_NW","angle":135,"enabled":true,"min":112.5,"max":157.5},{"suffix":"_N","angle":180,"enabled":true,"min":157.5,"max":202.5},{"suffix":"_NE","angle":225,"enabled":true,"min":202.5,"max":247.5},{"suffix":"_E","angle":270,"enabled":true,"min":247.5,"max":292.5},{"suffix":"_SE","angle":315,"enabled":true,"min":292.5,"max":337.5}]},"custom":[],"instances":[{"name":"fp_cliff_45","uuid":"7741042F-08DC-41FB-AA69-71B5D3A5256D","parent":null,"pos":{"x":46.5,"y":1,"z":6.5},"rot":{"x":0,"y":0,"z":0,"order":"XYZ"},"sca":{"x":1,"y":1,"z":1},"custom":[]},{"name":"fp_cliff_45","uuid":"C2C5DE12-D36F-407F-8F28-1F67CC18B930","parent":null,"pos":{"x":37.5,"y":1,"z":9.5},"rot":{"x":0,"y":0,"z":0,"order":"XYZ"},"sca":{"x":1,"y":1,"z":1},"custom":[]},{"name":"fp_cliff_45","uuid":"B7F3A2D0-9EA7-415C-B8DD-56BD2E8B47BF","parent":null,"pos":{"x":37.5,"y":1,"z":10.5},"rot":{"x":0,"y":0,"z":0,"order":"XYZ"},"sca":{"x":1,"y":1,"z":1},"custom":[]}]}},"mesh":0}],"bufferViews":[{"buffer":0,"byteOffset":0,"byteLength":144,"target":34962,"byteStride":12},{"buffer":0,"byteOffset":144,"byteLength":144,"target":34962,"byteStride":12},{"buffer":0,"byteOffset":288,"byteLength":96,"target":34962,"byteStride":8},{"buffer":0,"byteOffset":384,"byteLength":36,"target":34963}],"buffers":[{"byteLength":420,"uri":"data:application/octet-stream;base64,"}],"accessors":[{"bufferView":0,"componentType":5126,"count":12,"max":[0.25,0,0.5],"min":[0.125,-1,-0.5],"type":"VEC3"},{"bufferView":1,"componentType":5126,"count":12,"max":[1,0,0.4472135901451111],"min":[0.8944271802902222,0,-0.4472135901451111],"type":"VEC3"},{"bufferView":2,"componentType":5126,"count":12,"max":[0.734375,0.9166666865348816],"min":[0.71875,0.875],"type":"VEC2"},{"bufferView":3,"componentType":5123,"count":18,"max":[11],"min":[0],"type":"SCALAR"}],"materials":[{"pbrMetallicRoughness":{"metallicFactor":0,"roughnessFactor":1,"baseColorTexture":{"index":0}},"alphaMode":"MASK","alphaCutoff":0.01,"name":"forgottenPlainsTerrain_0"}],"textures":[{"sampler":0,"source":0,"name":"forgottenPlainsTerrain_0"}],"samplers":[{"magFilter":9728,"minFilter":9728,"wrapS":33071,"wrapT":33071}],"images":[{"mimeType":"image/png","uri":"forgottenPlainsTerrain_0.png"}],"meshes":[{"primitives":[{"mode":4,"attributes":{"POSITION":0,"NORMAL":1,"TEXCOORD_0":2},"indices":3,"material":0}]}]}