{"asset":{"version":"2.0","generator":"THREE.GLTFExporter"},"scenes":[{"name":"default","nodes":[0]}],"scene":0,"nodes":[{"name":"fp_clifftop_06","extras":{"data":{"name":"fp_clifftop_06","points":[{"name":"Origin","pos":{"x":0,"y":0,"z":0}}],"billboard":{"enabled":false,"y":false},"directional":{"enabled":false,"mode":"cameraAngle","angles":[{"suffix":"_S","angle":0,"enabled":true,"min":-22.5,"max":22.5},{"suffix":"_SW","angle":45,"enabled":true,"min":22.5,"max":67.5},{"suffix":"_W","angle":90,"enabled":true,"min":67.5,"max":112.5},{"suffix":"_NW","angle":135,"enabled":true,"min":112.5,"max":157.5},{"suffix":"_N","angle":180,"enabled":true,"min":157.5,"max":202.5},{"suffix":"_NE","angle":225,"enabled":true,"min":202.5,"max":247.5},{"suffix":"_E","angle":270,"enabled":true,"min":247.5,"max":292.5},{"suffix":"_SE","angle":315,"enabled":true,"min":292.5,"max":337.5}]},"custom":[],"instances":[{"name":"fp_clifftop_06","uuid":"FFD118CE-98F7-4A8D-BFD3-70D2E939E8E5","parent":null,"pos":{"x":36.5,"y":2,"z":5.5},"rot":{"x":0,"y":0,"z":0,"order":"XYZ"},"sca":{"x":1,"y":1,"z":1},"custom":[]}]}},"mesh":0}],"bufferViews":[{"buffer":0,"byteOffset":0,"byteLength":768,"target":34962,"byteStride":12},{"buffer":0,"byteOffset":768,"byteLength":768,"target":34962,"byteStride":12},{"buffer":0,"byteOffset":1536,"byteLength":512,"target":34962,"byteStride":8},{"buffer":0,"byteOffset":2048,"byteLength":192,"target":34963}],"buffers":[{"byteLength":2240,"uri":"data:application/octet-stream;base64,"}],"accessors":[{"bufferView":0,"componentType":5126,"count":64,"max":[0.5,0,0.5],"min":[-0.25,-1,-0.5],"type":"VEC3"},{"bufferView":1,"componentType":5126,"count":64,"max":[0.8944271802902222,1,0.8944271802902222],"min":[-1,0,-0.8944271802902222],"type":"VEC3"},{"bufferView":2,"componentType":5126,"count":64,"max":[0.734375,0.9166666865348816],"min":[0.59375,0.5833333134651184],"type":"VEC2"},{"bufferView":3,"componentType":5123,"count":96,"max":[63],"min":[0],"type":"SCALAR"}],"materials":[{"pbrMetallicRoughness":{"metallicFactor":0,"roughnessFactor":1,"baseColorTexture":{"index":0}},"alphaMode":"MASK","alphaCutoff":0.01,"name":"forgottenPlainsTerrain_0"}],"textures":[{"sampler":0,"source":0,"name":"forgottenPlainsTerrain_0"}],"samplers":[{"magFilter":9728,"minFilter":9728,"wrapS":33071,"wrapT":33071}],"images":[{"mimeType":"image/png","uri":"forgottenPlainsTerrain_0.png"}],"meshes":[{"primitives":[{"mode":4,"attributes":{"POSITION":0,"NORMAL":1,"TEXCOORD_0":2},"indices":3,"material":0}]}]}