{"asset":{"version":"2.0","generator":"THREE.GLTFExporter"},"scenes":[{"name":"default","nodes":[0]}],"scene":0,"nodes":[{"name":"fp_cliff_34","extras":{"data":{"name":"fp_cliff_34","points":[{"name":"Origin","pos":{"x":0,"y":0,"z":0}}],"billboard":{"enabled":false,"y":false},"directional":{"enabled":false,"mode":"cameraAngle","angles":[]},"custom":[],"instances":[{"name":"fp_cliff_34","uuid":"84F761DF-E31A-4E87-8677-104C50D1B366","parent":null,"pos":{"x":43.5,"y":1,"z":5.5},"rot":{"x":0,"y":0,"z":0,"order":"XYZ"},"sca":{"x":1,"y":1,"z":1},"custom":[]},{"name":"fp_cliff_34","uuid":"8B1A3329-DE56-40CE-BE9F-D6F7BBD56FD6","parent":null,"pos":{"x":35.5,"y":1,"z":10.5},"rot":{"x":0,"y":0,"z":0,"order":"XYZ"},"sca":{"x":1,"y":1,"z":1},"custom":[]},{"name":"fp_cliff_34","uuid":"3151B158-0BCC-498C-9C5C-72BF22FCC24C","parent":null,"pos":{"x":35.5,"y":1,"z":9.5},"rot":{"x":0,"y":0,"z":0,"order":"XYZ"},"sca":{"x":1,"y":1,"z":1},"custom":[]}]}},"mesh":0}],"bufferViews":[{"buffer":0,"byteOffset":0,"byteLength":144,"target":34962,"byteStride":12},{"buffer":0,"byteOffset":144,"byteLength":144,"target":34962,"byteStride":12},{"buffer":0,"byteOffset":288,"byteLength":96,"target":34962,"byteStride":8},{"buffer":0,"byteOffset":384,"byteLength":36,"target":34963}],"buffers":[{"byteLength":420,"uri":"data:application/octet-stream;base64,"}],"accessors":[{"bufferView":0,"componentType":5126,"count":12,"max":[-0.125,0,0.5],"min":[-0.25,-1,-0.5],"type":"VEC3"},{"bufferView":1,"componentType":5126,"count":12,"max":[-0.8944271802902222,0,0.4472135901451111],"min":[-1,0,-0.4472135901451111],"type":"VEC3"},{"bufferView":2,"componentType":5126,"count":12,"max":[0.734375,0.9166666865348816],"min":[0.71875,0.875],"type":"VEC2"},{"bufferView":3,"componentType":5123,"count":18,"max":[11],"min":[0],"type":"SCALAR"}],"materials":[{"pbrMetallicRoughness":{"metallicFactor":0,"roughnessFactor":1,"baseColorTexture":{"index":0}},"alphaMode":"MASK","alphaCutoff":0.01,"name":"forgottenPlainsTerrain_0"}],"textures":[{"sampler":0,"source":0,"name":"forgottenPlainsTerrain_0"}],"samplers":[{"magFilter":9728,"minFilter":9728,"wrapS":33071,"wrapT":33071}],"images":[{"mimeType":"image/png","uri":"forgottenPlainsTerrain_0.png"}],"meshes":[{"primitives":[{"mode":4,"attributes":{"POSITION":0,"NORMAL":1,"TEXCOORD_0":2},"indices":3,"material":0}]}]}