{"asset":{"version":"2.0","generator":"THREE.GLTFExporter"},"scenes":[{"name":"default","nodes":[0]}],"scene":0,"nodes":[{"name":"fp_hilltop_43","extras":{"data":{"name":"fp_hilltop_43","points":[{"name":"Origin","pos":{"x":0,"y":0,"z":0}}],"billboard":{"enabled":false,"y":false},"directional":{"enabled":false,"mode":"cameraAngle","angles":[]},"custom":[],"instances":[{"name":"fp_hilltop_43","uuid":"FA2A6CF3-8410-4FB2-9086-9DBE190C8B7F","parent":null,"pos":{"x":46.5,"y":2,"z":-1.5},"rot":{"x":0,"y":0,"z":0,"order":"XYZ"},"sca":{"x":1,"y":1,"z":1},"custom":[]}]}},"mesh":0}],"bufferViews":[{"buffer":0,"byteOffset":0,"byteLength":744,"target":34962,"byteStride":12},{"buffer":0,"byteOffset":744,"byteLength":744,"target":34962,"byteStride":12},{"buffer":0,"byteOffset":1488,"byteLength":496,"target":34962,"byteStride":8},{"buffer":0,"byteOffset":1984,"byteLength":144,"target":34963}],"buffers":[{"byteLength":2128,"uri":"data:application/octet-stream;base64,"}],"accessors":[{"bufferView":0,"componentType":5126,"count":62,"max":[0.25,0,0.5],"min":[-0.5,-1,-0.25],"type":"VEC3"},{"bufferView":1,"componentType":5126,"count":62,"max":[1,1,0.4472135901451111],"min":[-0.4472135901451111,0,-1],"type":"VEC3"},{"bufferView":2,"componentType":5126,"count":62,"max":[0.765625,0.4166666865348816],"min":[0.71875,0.04166668653488159],"type":"VEC2"},{"bufferView":3,"componentType":5123,"count":72,"max":[61],"min":[0],"type":"SCALAR"}],"materials":[{"pbrMetallicRoughness":{"metallicFactor":0,"roughnessFactor":1,"baseColorTexture":{"index":0}},"alphaMode":"MASK","alphaCutoff":0.01,"name":"forgottenPlainsTerrain_0"}],"textures":[{"sampler":0,"source":0,"name":"forgottenPlainsTerrain_0"}],"samplers":[{"magFilter":9728,"minFilter":9728,"wrapS":33071,"wrapT":33071}],"images":[{"mimeType":"image/png","uri":"forgottenPlainsTerrain_0.png"}],"meshes":[{"primitives":[{"mode":4,"attributes":{"POSITION":0,"NORMAL":1,"TEXCOORD_0":2},"indices":3,"material":0}]}]}