{"asset":{"version":"2.0","generator":"THREE.GLTFExporter"},"scenes":[{"name":"default","nodes":[0]}],"scene":0,"nodes":[{"name":"fp_prop_wall_dirt","extras":{"data":{"name":"fp_prop_wall_dirt","points":[{"name":"Origin","pos":{"x":0,"y":0,"z":0}}],"billboard":{"enabled":false,"y":false},"directional":{"enabled":false,"mode":"cameraAngle","angles":[]},"custom":[],"instances":[{"name":"fp_prop_wall_dirt","uuid":"167B217B-D3CE-4226-8E73-19815790D666","parent":null,"pos":{"x":5.125,"y":0,"z":-5.375},"rot":{"x":0,"y":0,"z":0,"order":"XYZ"},"sca":{"x":1,"y":1,"z":1},"custom":[]}]}},"mesh":0}],"bufferViews":[{"buffer":0,"byteOffset":0,"byteLength":12240,"target":34962,"byteStride":12},{"buffer":0,"byteOffset":12240,"byteLength":12240,"target":34962,"byteStride":12},{"buffer":0,"byteOffset":24480,"byteLength":8160,"target":34962,"byteStride":8},{"buffer":0,"byteOffset":32640,"byteLength":2040,"target":34963}],"buffers":[{"byteLength":34680,"uri":"data:application/octet-stream;base64,"}],"accessors":[{"bufferView":0,"componentType":5126,"count":1020,"max":[3,2.625,0.375],"min":[-3.125,-0.25,-0.375],"type":"VEC3"},{"bufferView":1,"componentType":5126,"count":1020,"max":[1,1,1],"min":[-1,0,-1],"type":"VEC3"},{"bufferView":2,"componentType":5126,"count":1020,"max":[0.27734375,0.625],"min":[0.01171875,0.265625],"type":"VEC2"},{"bufferView":3,"componentType":5123,"count":1020,"max":[1019],"min":[0],"type":"SCALAR"}],"materials":[{"pbrMetallicRoughness":{"metallicFactor":0,"roughnessFactor":0.9,"baseColorTexture":{"index":0}},"alphaMode":"MASK","alphaCutoff":0.01,"name":"tiletogridterrain_0_3","extensions":{"KHR_materials_unlit":{}}}],"textures":[{"sampler":0,"source":0,"name":"tiletogridterrain_0_3"}],"samplers":[{"magFilter":9728,"minFilter":9728,"wrapS":33071,"wrapT":33071}],"images":[{"mimeType":"image/png","uri":"tiletogridterrain_0_3.png"}],"meshes":[{"primitives":[{"mode":4,"attributes":{"POSITION":0,"NORMAL":1,"TEXCOORD_0":2},"indices":3,"material":0}]}],"extensionsUsed":["KHR_materials_unlit"]}