{"asset":{"version":"2.0","generator":"THREE.GLTFExporter"},"scenes":[{"name":"default","nodes":[0]}],"scene":0,"nodes":[{"name":"fp_prop_stack_00","extras":{"data":{"name":"fp_prop_stack_00","points":[{"name":"Origin","pos":{"x":0,"y":0,"z":0}}],"billboard":{"enabled":false,"y":false},"directional":{"enabled":false,"mode":"cameraAngle","angles":[]},"custom":[],"instances":[{"name":"fp_prop_stack_00","uuid":"C9EDFFBA-4A50-40BC-BB3A-2D932F113AD1","parent":null,"pos":{"x":0.5,"y":0,"z":-3.5},"rot":{"x":0,"y":0,"z":0,"order":"XYZ"},"sca":{"x":1,"y":1,"z":1},"custom":[]}]}},"mesh":0}],"bufferViews":[{"buffer":0,"byteOffset":0,"byteLength":1584,"target":34962,"byteStride":12},{"buffer":0,"byteOffset":1584,"byteLength":1584,"target":34962,"byteStride":12},{"buffer":0,"byteOffset":3168,"byteLength":1056,"target":34962,"byteStride":8},{"buffer":0,"byteOffset":4224,"byteLength":264,"target":34963}],"buffers":[{"byteLength":4488,"uri":"data:application/octet-stream;base64,"}],"accessors":[{"bufferView":0,"componentType":5126,"count":132,"max":[0.5,0.375,0.5],"min":[-0.5,0,-0.5],"type":"VEC3"},{"bufferView":1,"componentType":5126,"count":132,"max":[1,1,1],"min":[-1,-1,-1],"type":"VEC3"},{"bufferView":2,"componentType":5126,"count":132,"max":[0.25,0.3125],"min":[0.234375,0.28125],"type":"VEC2"},{"bufferView":3,"componentType":5123,"count":132,"max":[131],"min":[0],"type":"SCALAR"}],"materials":[{"pbrMetallicRoughness":{"metallicFactor":0,"roughnessFactor":0.9,"baseColorTexture":{"index":0}},"alphaMode":"MASK","alphaCutoff":0.01,"name":"tiletogridterrain_0_2","extensions":{"KHR_materials_unlit":{}}}],"textures":[{"sampler":0,"source":0,"name":"tiletogridterrain_0_2"}],"samplers":[{"magFilter":9728,"minFilter":9728,"wrapS":33071,"wrapT":33071}],"images":[{"mimeType":"image/png","uri":"tiletogridterrain_0_2.png"}],"meshes":[{"primitives":[{"mode":4,"attributes":{"POSITION":0,"NORMAL":1,"TEXCOORD_0":2},"indices":3,"material":0}]}],"extensionsUsed":["KHR_materials_unlit"]}