{"asset":{"version":"2.0","generator":"THREE.GLTFExporter"},"scenes":[{"name":"default","nodes":[0]}],"scene":0,"nodes":[{"name":"fp_ramp_right","extras":{"data":{"name":"fp_ramp_right","points":[{"name":"Origin","pos":{"x":0,"y":0,"z":0}}],"billboard":{"enabled":false,"y":false},"directional":{"enabled":false,"mode":"cameraAngle","angles":[]},"custom":[],"instances":[{"name":"fp_ramp_right","uuid":"C940A5F6-8725-4CCB-BF9E-C3862EC8CC40","parent":null,"pos":{"x":5.5,"y":0,"z":23.5},"rot":{"x":0,"y":0,"z":0,"order":"XYZ"},"sca":{"x":1,"y":1,"z":1},"custom":[]},{"name":"fp_ramp_right","uuid":"08C4DABC-AFE6-4C8B-B716-2EE611EA1DF7","parent":null,"pos":{"x":5.5,"y":-1,"z":24.5},"rot":{"x":0,"y":0,"z":0,"order":"XYZ"},"sca":{"x":1,"y":1,"z":1},"custom":[]}]}},"mesh":0}],"bufferViews":[{"buffer":0,"byteOffset":0,"byteLength":432,"target":34962,"byteStride":12},{"buffer":0,"byteOffset":432,"byteLength":432,"target":34962,"byteStride":12},{"buffer":0,"byteOffset":864,"byteLength":288,"target":34962,"byteStride":8},{"buffer":0,"byteOffset":1152,"byteLength":72,"target":34963}],"buffers":[{"byteLength":1224,"uri":"data:application/octet-stream;base64,"}],"accessors":[{"bufferView":0,"componentType":5126,"count":36,"max":[0.5,0.875,0.5],"min":[-0.5,-0.25,-0.5],"type":"VEC3"},{"bufferView":1,"componentType":5126,"count":36,"max":[1,0.7071067690849304,1],"min":[-0.5773502588272095,0,-1],"type":"VEC3"},{"bufferView":2,"componentType":5126,"count":36,"max":[0.28125,0.9375],"min":[0.15625,0.53515625],"type":"VEC2"},{"bufferView":3,"componentType":5123,"count":36,"max":[35],"min":[0],"type":"SCALAR"}],"materials":[{"pbrMetallicRoughness":{"metallicFactor":0,"roughnessFactor":1,"baseColorTexture":{"index":0}},"alphaMode":"MASK","alphaCutoff":0.01,"name":"tiletogridterrain_0"}],"textures":[{"sampler":0,"source":0,"name":"tiletogridterrain_0"}],"samplers":[{"magFilter":9728,"minFilter":9728,"wrapS":33071,"wrapT":33071}],"images":[{"mimeType":"image/png","uri":"tiletogridterrain_0.png"}],"meshes":[{"primitives":[{"mode":4,"attributes":{"POSITION":0,"NORMAL":1,"TEXCOORD_0":2},"indices":3,"material":0}]}]}