{"asset":{"version":"2.0","generator":"THREE.GLTFExporter"},"scenes":[{"name":"default","nodes":[0]}],"scene":0,"nodes":[{"name":"fp_stairs_center","extras":{"data":{"name":"fp_stairs_center","points":[{"name":"Origin","pos":{"x":0,"y":0,"z":0}}],"billboard":{"enabled":false,"y":false},"directional":{"enabled":false,"mode":"cameraAngle","angles":[]},"custom":[],"instances":[{"name":"fp_stairs_center","uuid":"6278B499-84A1-4715-9A3C-4F994ABC07C0","parent":null,"pos":{"x":14.5,"y":0,"z":23.5},"rot":{"x":0,"y":0,"z":0,"order":"XYZ"},"sca":{"x":1,"y":1,"z":1},"custom":[]}]}},"mesh":0}],"bufferViews":[{"buffer":0,"byteOffset":0,"byteLength":1224,"target":34962,"byteStride":12},{"buffer":0,"byteOffset":1224,"byteLength":1224,"target":34962,"byteStride":12},{"buffer":0,"byteOffset":2448,"byteLength":816,"target":34962,"byteStride":8},{"buffer":0,"byteOffset":3264,"byteLength":204,"target":34963}],"buffers":[{"byteLength":3468,"uri":"data:application/octet-stream;base64,"}],"accessors":[{"bufferView":0,"componentType":5126,"count":102,"max":[0.5,0.8125,0.4375],"min":[-0.5,-0.1875,-0.5625],"type":"VEC3"},{"bufferView":1,"componentType":5126,"count":102,"max":[0,1,1],"min":[0,0,-1],"type":"VEC3"},{"bufferView":2,"componentType":5126,"count":102,"max":[0.5,0.9375],"min":[0.46875,0.90625],"type":"VEC2"},{"bufferView":3,"componentType":5123,"count":102,"max":[101],"min":[0],"type":"SCALAR"}],"materials":[{"pbrMetallicRoughness":{"metallicFactor":0,"roughnessFactor":1,"baseColorTexture":{"index":0}},"alphaMode":"MASK","alphaCutoff":0.01,"name":"tiletogridterrain_0"}],"textures":[{"sampler":0,"source":0,"name":"tiletogridterrain_0"}],"samplers":[{"magFilter":9728,"minFilter":9728,"wrapS":33071,"wrapT":33071}],"images":[{"mimeType":"image/png","uri":"tiletogridterrain_0.png"}],"meshes":[{"primitives":[{"mode":4,"attributes":{"POSITION":0,"NORMAL":1,"TEXCOORD_0":2},"indices":3,"material":0}]}]}