{"asset":{"version":"2.0","generator":"THREE.GLTFExporter"},"scenes":[{"name":"default","nodes":[0]}],"scene":0,"nodes":[{"name":"fp_stairs_right","extras":{"data":{"name":"fp_stairs_right","points":[{"name":"Origin","pos":{"x":0,"y":0,"z":0}}],"billboard":{"enabled":false,"y":false},"directional":{"enabled":false,"mode":"cameraAngle","angles":[]},"custom":[],"instances":[{"name":"fp_stairs_right","uuid":"38D74D8E-DF1C-4B58-8454-CD89F08DCC8C","parent":null,"pos":{"x":15.5,"y":0,"z":23.5},"rot":{"x":0,"y":0,"z":0,"order":"XYZ"},"sca":{"x":1,"y":1,"z":1},"custom":[]},{"name":"fp_stairs_right","uuid":"7AD599F9-6F44-45F7-9634-C50698AC9615","parent":null,"pos":{"x":15.5,"y":-1,"z":24.5},"rot":{"x":0,"y":0,"z":0,"order":"XYZ"},"sca":{"x":1,"y":1,"z":1},"custom":[]}]}},"mesh":0}],"bufferViews":[{"buffer":0,"byteOffset":0,"byteLength":2160,"target":34962,"byteStride":12},{"buffer":0,"byteOffset":2160,"byteLength":2160,"target":34962,"byteStride":12},{"buffer":0,"byteOffset":4320,"byteLength":1440,"target":34962,"byteStride":8},{"buffer":0,"byteOffset":5760,"byteLength":360,"target":34963}],"buffers":[{"byteLength":6120,"uri":"data:application/octet-stream;base64,"}],"accessors":[{"bufferView":0,"componentType":5126,"count":180,"max":[0.5,1,0.4375],"min":[-0.5,-0.1875,-0.5625],"type":"VEC3"},{"bufferView":1,"componentType":5126,"count":180,"max":[1,1,1],"min":[-1,0,-1],"type":"VEC3"},{"bufferView":2,"componentType":5126,"count":180,"max":[0.296875,0.46875],"min":[0.234375,0.265625],"type":"VEC2"},{"bufferView":3,"componentType":5123,"count":180,"max":[179],"min":[0],"type":"SCALAR"}],"materials":[{"pbrMetallicRoughness":{"metallicFactor":0,"roughnessFactor":0.9,"baseColorTexture":{"index":0}},"alphaMode":"MASK","alphaCutoff":0.01,"name":"tiletogridterrain_0","extensions":{"KHR_materials_unlit":{}}}],"textures":[{"sampler":0,"source":0,"name":"tiletogridterrain_0"}],"samplers":[{"magFilter":9728,"minFilter":9728,"wrapS":33071,"wrapT":33071}],"images":[{"mimeType":"image/png","uri":"tiletogridterrain_0.png"}],"meshes":[{"primitives":[{"mode":4,"attributes":{"POSITION":0,"NORMAL":1,"TEXCOORD_0":2},"indices":3,"material":0}]}],"extensionsUsed":["KHR_materials_unlit"]}