{"asset":{"version":"2.0","generator":"THREE.GLTFExporter"},"scenes":[{"name":"default","nodes":[0]}],"scene":0,"nodes":[{"name":"fp_water_grass_40","extras":{"data":{"name":"fp_water_grass_40","points":[{"name":"Origin","pos":{"x":0,"y":0,"z":0}}],"billboard":{"enabled":false,"y":false},"directional":{"enabled":false,"mode":"cameraAngle","angles":[]},"custom":[],"instances":[{"name":"fp_water_grass_40","uuid":"37B7E0D1-2EE0-4D9F-8479-307A0261A67C","parent":null,"pos":{"x":58.19,"y":0,"z":-1.5},"rot":{"x":0,"y":0,"z":0,"order":"XYZ"},"sca":{"x":1,"y":1,"z":1},"custom":[]}]}},"mesh":0}],"bufferViews":[{"buffer":0,"byteOffset":0,"byteLength":144,"target":34962,"byteStride":12},{"buffer":0,"byteOffset":144,"byteLength":144,"target":34962,"byteStride":12},{"buffer":0,"byteOffset":288,"byteLength":96,"target":34962,"byteStride":8},{"buffer":0,"byteOffset":384,"byteLength":48,"target":34963}],"buffers":[{"byteLength":432,"uri":"data:application/octet-stream;base64,"}],"accessors":[{"bufferView":0,"componentType":5126,"count":12,"max":[0.5,0,0.5],"min":[-0.5,-0.5,-0.5],"type":"VEC3"},{"bufferView":1,"componentType":5126,"count":12,"max":[0,1,0.7071067690849304],"min":[0,0.7071067690849304,0],"type":"VEC3"},{"bufferView":2,"componentType":5126,"count":12,"max":[0.96875,0.08333331346511841],"min":[0.953125,0.04166668653488159],"type":"VEC2"},{"bufferView":3,"componentType":5123,"count":24,"max":[11],"min":[0],"type":"SCALAR"}],"materials":[{"pbrMetallicRoughness":{"metallicFactor":0,"roughnessFactor":1,"baseColorTexture":{"index":0}},"alphaMode":"MASK","alphaCutoff":0.01,"name":"forgottenPlainsTerrain_0"}],"textures":[{"sampler":0,"source":0,"name":"forgottenPlainsTerrain_0"}],"samplers":[{"magFilter":9728,"minFilter":9728,"wrapS":33071,"wrapT":33071}],"images":[{"mimeType":"image/png","uri":"forgottenPlainsTerrain_0.png"}],"meshes":[{"primitives":[{"mode":4,"attributes":{"POSITION":0,"NORMAL":1,"TEXCOORD_0":2},"indices":3,"material":0}]}]}